<svg xmlns="http://www.w3.org/2000/svg" viewBox="0 0 933.4 160.29"><g id="レイヤー_2" data-name="レイヤー 2"><g id="レイヤー_1-2" data-name="レイヤー 1"><path d="M1.1,139.16a3.23,3.23,0,0,1,2.32-1.1,18.56,18.56,0,0,1,8.06,2.32A25.54,25.54,0,0,0,23,142.7a13.54,13.54,0,0,0,10.63-4.52,14.55,14.55,0,0,0,4-9.9,35.62,35.62,0,0,0-2.32-11.48q-2.33-6.6-5.74-14t-7.46-15.4q-4-7.93-7.45-15.39t-5.74-14A34.84,34.84,0,0,1,6.6,46.67q0-4.16,3.3-11.85A86.63,86.63,0,0,1,18.69,19.3,65.18,65.18,0,0,1,31.4,5.74Q38.6,0,46.43,0a48.07,48.07,0,0,1,5,.37,42.91,42.91,0,0,1,6.47,1.22,25,25,0,0,1,5.62,2.2c1.63.89,2.44,2,2.44,3.3,0,3.26-.61,5.37-1.83,6.35S60,15,55.47,15.15q-16.12.49-23.22,7.45a23.22,23.22,0,0,0-7.08,17.23q0,6.36,4.15,16T38.48,76.6q5,11.13,9.17,23a68.35,68.35,0,0,1,4.15,22.6,53.34,53.34,0,0,1-1.22,8.07,49.07,49.07,0,0,1-4.52,12.58,41.56,41.56,0,0,1-8.8,11.61q-5.49,5.13-14.29,5.13a27.76,27.76,0,0,1-5.62-.73,48.22,48.22,0,0,1-6.72-2,51.48,51.48,0,0,1-5.87-2.56c-1.71-.9-2.73-1.75-3-2.57-.49-1.47-.9-2.89-1.22-4.28A19.45,19.45,0,0,1,0,142.94,5.25,5.25,0,0,1,1.1,139.16Z"/><path d="M108.12,58.28q-.62-17.72-1.83-26a13.12,13.12,0,0,0-.73-2.68,3.81,3.81,0,0,0-2-2q-3.66-2-3.66-4.4c0-2.28,1.42-4.43,4.27-6.47a53.81,53.81,0,0,1,9.9-5.5,71.7,71.7,0,0,1,11.61-3.91,41.75,41.75,0,0,1,9.16-1.47,80.06,80.06,0,0,1,14.66,1.59A79.2,79.2,0,0,1,164.93,12a22.57,22.57,0,0,1,6.36,4.65,47.75,47.75,0,0,1,5.74,7,40.36,40.36,0,0,1,4.15,7.82,20.44,20.44,0,0,1,1.59,7.45q0,17.11-4.15,23.46a68.47,68.47,0,0,1-6.36,8.43,114.25,114.25,0,0,1-8.18,8.55A75.34,75.34,0,0,1,156,86c-2.52,1.8-4.44,2.69-5.74,2.69a15,15,0,0,1-4.76-1,50.83,50.83,0,0,1-5.38-2.2,22.45,22.45,0,0,1-4.4-2.69c-1.22-1-1.83-1.71-1.83-2.19a2.5,2.5,0,0,1,1.22-2.08A14.08,14.08,0,0,1,139.77,77q11.72-2.44,18.57-10.26a25.79,25.79,0,0,0,6.84-17.35,57.08,57.08,0,0,0-.86-8.92,40.73,40.73,0,0,0-3-10.14,24.68,24.68,0,0,0-6-8.31,13.53,13.53,0,0,0-9.41-3.42A31.81,31.81,0,0,0,136,20a45.29,45.29,0,0,0-9.41,4.4c-.33,2.77-.65,6.07-1,9.89s-.61,7.82-.85,12-.45,8.27-.61,12.34-.25,7.74-.25,11v64.51q0,13.44-3,19.79t-10.63,6.35q-4.15,0-4.15-3.66a7.86,7.86,0,0,1,.36-2.2c.25-.82.57-1.91,1-3.3a33.85,33.85,0,0,0,1-5.62q.36-3.54.36-9.41V99.69Q108.73,76,108.12,58.28Z"/><path d="M307.88,153c-1.8,0-3-.52-3.67-1.59a8.64,8.64,0,0,1-1-4.52q0-12.69.74-26.39t.73-29.07V77.21q0-7.56-.12-14.9t-.37-13.68c-.16-4.24-.33-7.9-.49-11a8,8,0,0,0-1.59-5A19.82,19.82,0,0,0,298.47,29q-2.09-1.59-3.67-3.06a4.5,4.5,0,0,1-1.58-3.42A5.64,5.64,0,0,1,294.31,20a22.65,22.65,0,0,1,2.94-3.55,22.1,22.1,0,0,1,4.27-3.3,9.89,9.89,0,0,1,5.13-1.46,19,19,0,0,1,5.38,1A49.06,49.06,0,0,1,318.14,15a31.17,31.17,0,0,1,5,2.81c1.38,1,2.08,1.87,2.08,2.69a17.62,17.62,0,0,1-1.84,6.35,27.62,27.62,0,0,0-2.07,10q0,8.79-.13,18.32t-.61,18.57h65c.16-3.25.28-6.92.37-11s.12-8.23.12-12.46a152.31,152.31,0,0,0-.74-15.64c-.48-4.73-.73-8.23-.73-10.51,0-1.14.82-2.2,2.45-3.18a28.92,28.92,0,0,1,5.74-2.56,48.29,48.29,0,0,1,6.72-1.71,32.91,32.91,0,0,1,5.62-.61q4.88,0,4.88,3.42a4.24,4.24,0,0,1-.61,2.07c-.41.74-.85,1.64-1.34,2.69s-1.06,2.41-1.71,4a35.06,35.06,0,0,0-1.71,6.36q-.74,4.39-1.22,9.53t-.74,10.38q-.24,5.27-.36,10.26t-.13,8.68c1.31-.16,2.65-.28,4-.37s2.72-.12,4-.12a6.41,6.41,0,0,1,3.05.61c.74.41,1.1,1.43,1.1,3.06a18,18,0,0,1-1.46,6q-1.47,3.8-4.4,3.79a7.28,7.28,0,0,1-1.71-.24,8.76,8.76,0,0,0-2.2-.25c-1.63,0-2.45,1-2.45,2.93l-.48,48.14a13.12,13.12,0,0,1-.61,3.54,29.07,29.07,0,0,1-1.59,4.16,14.56,14.56,0,0,1-2.32,3.54,4.07,4.07,0,0,1-3.06,1.47c-2.28,0-3.87-.41-4.76-1.23s-1.43-2.52-1.59-5.13L385.33,86.5q-6.58,0-16.24.37t-19.43.85q-9.78.5-18,1.34a78.12,78.12,0,0,0-11.61,1.84,17.46,17.46,0,0,0-1,4.52c-.17,1.71-.25,3.22-.25,4.52v41.54Q318.87,153,307.88,153Z"/><path d="M467,61.82a68.34,68.34,0,0,1,11-22.72,58.65,58.65,0,0,1,19.43-16.74q11.85-6.48,28.71-6.48a46.59,46.59,0,0,1,18.57,3.79A41.08,41.08,0,0,1,560,31.4q6.6,7.93,10.51,20.28t3.91,29.2q0,16.13-5,28.59a62.53,62.53,0,0,1-13.32,20.89,57.26,57.26,0,0,1-41,17.23,47,47,0,0,1-18.32-3.91,49.17,49.17,0,0,1-16.62-11.61,59.89,59.89,0,0,1-12-19.18q-4.65-11.49-4.65-26.63A91.76,91.76,0,0,1,467,61.82Zm15.88,33.23a58.32,58.32,0,0,0,6.23,16.5,46.51,46.51,0,0,0,12.34,14.29q7.82,6.1,20,6.11a39.25,39.25,0,0,0,11.48-2,31.15,31.15,0,0,0,12.1-7.33q5.73-5.37,9.52-14.78t3.79-24.07q0-15.15-3.17-25.41t-8.31-16.49a30.73,30.73,0,0,0-11.73-9,35.64,35.64,0,0,0-30.79,1.46,39.62,39.62,0,0,0-12.71,11.36,52.29,52.29,0,0,0-7.81,16.62,73.14,73.14,0,0,0-2.69,20A68.29,68.29,0,0,0,482.83,95.05Z"/><path d="M748.92,38.73q7.82-13.06,11.85-19.79a62.07,62.07,0,0,1,5.75-8.56,4.78,4.78,0,0,1,3.42-1.83,19.09,19.09,0,0,1,4,.61q2.56.62,5.13,1.47a29.24,29.24,0,0,1,4.4,1.83q1.83,1,1.83,1.71a31.34,31.34,0,0,1-.37,5,26.92,26.92,0,0,0-.36,4,141.52,141.52,0,0,0,1.71,19.43q1.7,11.85,4.27,25.17t5.62,27q3.06,13.68,5.62,25t4.28,18.94a68.53,68.53,0,0,1,1.71,9c0,1-.65,1.88-2,2.69a20.53,20.53,0,0,1-4.52,2.08c-1.71.56-3.29,1.05-4.76,1.46a13.84,13.84,0,0,1-2.93.61,4,4,0,0,1-3.06-1c-.57-.66-1-2.12-1.34-4.4q-2-16.62-4.64-32.62t-5.5-31q-2.82-15-5.5-28.83t-4.4-26q-16.12,24.68-25.65,39.83T728.89,94.69A93.2,93.2,0,0,0,722.17,108a29.12,29.12,0,0,0-1.84,7.58q-.24,4.15-2,5.49a8.18,8.18,0,0,1-5.13,1.35c-2.29,0-3.91-.49-4.89-1.47s-2.12-3.09-3.42-6.35c-.65-1.47-2-4-4.16-7.7s-4.68-7.85-7.69-12.58-6.32-9.78-9.9-15.15-7.08-10.59-10.5-15.64-6.56-9.73-9.41-14.05l-6.72-10.14q-.73,2.92-2.45,11.48T650.2,70.49Q648,81.62,645.68,94t-4.27,23q-2,10.64-3.18,18.2c-.82,5.06-1.22,8.07-1.22,9a15.93,15.93,0,0,0,.49,3.91A16.28,16.28,0,0,1,638,152a2.4,2.4,0,0,1-1.1,1.84,5.84,5.84,0,0,1-3.54.85,43,43,0,0,1-10.63-1.22q-4.77-1.22-4.77-5.37a18.41,18.41,0,0,1,1.22-5.5q1.23-3.54,3.42-10.14,1.23-3.91,3.42-12.34t4.65-19.31q2.43-10.86,5-22.84t4.64-22.73q2.07-10.74,3.42-19.18A88.7,88.7,0,0,0,645.07,24c0-2.77-.41-4.68-1.22-5.75a7.22,7.22,0,0,1-1.22-4.52q0-2.68,3.67-3.54a40.5,40.5,0,0,1,9-.85c2.76,0,4.6.28,5.49.85s1.51,1.75,1.84,3.54A43,43,0,0,0,666.82,24q3.42,6.59,8.31,14.78t10.63,17.1q5.73,8.92,11.12,16.86T706.65,87l6.6,9.53,13.92-22.24Q741.11,51.81,748.92,38.73Z"/><path d="M924.85,77.7A4.65,4.65,0,0,1,923.51,80a30.16,30.16,0,0,1-3.3,3.3,38.77,38.77,0,0,1-3.79,2.94,6,6,0,0,1-3,1.22q-11,1-20.4,1.1t-16.74.36q0,29.32,11.48,44.11t36.65,14.78c3.58,0,6,.33,7.21,1s1.83,2,1.83,4.15c0,1.3-1.22,2.61-3.66,3.91s-6.76,2-13,2q-13.93,0-23.7-3.06a51.32,51.32,0,0,1-16.37-8.18,39.57,39.57,0,0,1-10.39-11.85,59.17,59.17,0,0,1-5.74-14.18,78,78,0,0,1-2.44-15q-.49-7.58-.49-14.42,0-24.43,4.52-40.93T874,24.56q7.34-10.14,17-14.42a48.66,48.66,0,0,1,19.91-4.28c6.85,0,11.49.54,13.93,1.59a5.75,5.75,0,0,1,3.67,5.74q0,5.39-4.64,5.38H909.46A27.81,27.81,0,0,0,898.1,21q-5.51,2.44-10,9.17t-7.7,18.45q-3.18,11.71-4.15,30.05a16.33,16.33,0,0,1,4.64-2.81,16.77,16.77,0,0,1,6.35-1.1h33Q924.84,74.77,924.85,77.7Z"/></g></g></svg>